<?xml version="1.0" encoding="UTF-8" standalone="no"?>
<svg
   xmlns:dc="http://purl.org/dc/elements/1.1/"
   xmlns:cc="http://creativecommons.org/ns#"
   xmlns:rdf="http://www.w3.org/1999/02/22-rdf-syntax-ns#"
   xmlns:svg="http://www.w3.org/2000/svg"
   xmlns="http://www.w3.org/2000/svg"
   xmlns:sodipodi="http://sodipodi.sourceforge.net/DTD/sodipodi-0.dtd"
   xmlns:inkscape="http://www.inkscape.org/namespaces/inkscape"
   width="20.440336"
   height="15.794806"
   id="Mano"
   version="1.0"
   inkscape:version="0.48.3.1 r9886"
   sodipodi:docname="hand.svg">
  <defs
     id="defs10" />
  <sodipodi:namedview
     pagecolor="#ffffff"
     bordercolor="#666666"
     borderopacity="1"
     objecttolerance="10"
     gridtolerance="10"
     guidetolerance="10"
     inkscape:pageopacity="0"
     inkscape:pageshadow="2"
     inkscape:window-width="1280"
     inkscape:window-height="726"
     id="namedview8"
     showgrid="false"
     fit-margin-top="0"
     fit-margin-left="0"
     fit-margin-right="0"
     fit-margin-bottom="0"
     inkscape:zoom="4.1548459"
     inkscape:cx="39.565003"
     inkscape:cy="-7.2508419"
     inkscape:window-x="0"
     inkscape:window-y="25"
     inkscape:window-maximized="1"
     inkscape:current-layer="Mano" />
  <metadata
     id="Metadata">
    <rdf:RDF>
      <cc:Work
         rdf:about="">
        <dc:format>image/svg+xml</dc:format>
        <dc:type
           rdf:resource="http://purl.org/dc/dcmitype/StillImage" />
      </cc:Work>
    </rdf:RDF>
  </metadata>
  <g
     id="g4"
     transform="matrix(0,0.04645531,-0.04645531,0,20.440336,0)">
    <path
       style="fill:#000000;fill-opacity:1;fill-rule:evenodd;stroke:none"
       d="m 0,180 60,0 0,20 20,0 0,-180 20,0 0,-20 40,0 0,20 20,0 0,80 40,0 0,20 60,0 0,20 40,0 0,20 20,0 0,20 20,0 0,140 -20,0 0,60 -20,0 0,60 -200,0 0,-60 -20,0 0,-40 -20,0 0,-40 -20,0 0,-40 -20,0 0,-20 -20,0 0,-60 z"
       id="NigraBordero"
       inkscape:connector-curvature="0" />
    <path
       style="fill:#ffffff;fill-opacity:1;fill-rule:evenodd;stroke:none"
       d="m 20,200 40,0 0,20 20,0 c 0,0 0,60 0,60 l 20,0 0,-260 40,0 0,180 20,0 0,-80 40,0 0,80 20,0 0,-60 40,0 0,80 20,0 0,-60 20,0 0,20 20,0 0,140 -20,0 0,60 -20,0 0,40 -160,0 0,-40 -20,0 0,-40 -20,0 0,-40 -20,0 0,-40 -20,0 0,-20 -20,0 0,-40 z"
       id="BlankaIntero"
       inkscape:connector-curvature="0" />
  </g>
</svg>
